<svg width="1440" height="900" viewBox="0 0 1440 900" xmlns="http://www.w3.org/2000/svg">
  <defs>
    <linearGradient id="bg" x1="0" y1="0" x2="0" y2="1">
      <stop offset="0%" stop-color="#141a27"/>
      <stop offset="100%" stop-color="#0d1118"/>
    </linearGradient>
    <linearGradient id="surface" x1="0" y1="0" x2="0" y2="1">
      <stop offset="0%" stop-color="#1f2636"/>
      <stop offset="100%" stop-color="#171d2a"/>
    </linearGradient>
  </defs>

  <rect width="1440" height="900" fill="url(#bg)"/>

  <text x="120" y="84" fill="#f1f5fb" font-size="18" font-family="Inter, Arial" letter-spacing="3">FORGE</text>
  <text x="120" y="132" fill="#edf2f8" font-size="58" font-family="Inter, Arial" font-weight="700">Today</text>
  <text x="120" y="166" fill="#9ba6ba" font-size="17" font-family="Inter, Arial">Intimacy command center · A=7d · B=14d · C=30d</text>

  <rect x="980" y="72" width="90" height="34" rx="10" fill="#1a2130" stroke="rgba(255,255,255,0.12)"/>
  <text x="1006" y="94" fill="#dbe3f2" font-size="13" font-family="Inter, Arial">Refresh</text>
  <rect x="1082" y="72" width="90" height="34" rx="10" fill="#edf2f8"/>
  <text x="1108" y="94" fill="#121724" font-size="13" font-family="Inter, Arial" font-weight="600">Sign out</text>

  <rect x="120" y="200" width="1200" height="66" rx="14" fill="url(#surface)" stroke="rgba(255,255,255,0.09)"/>
  <text x="150" y="226" fill="#91a0b8" font-size="11" font-family="Inter, Arial" letter-spacing="2">MUST CONTACT</text>
  <text x="150" y="252" fill="#eef2f8" font-size="42" font-family="Inter, Arial" font-weight="700">4</text>
  <line x1="420" y1="214" x2="420" y2="252" stroke="rgba(255,255,255,0.08)"/>
  <text x="450" y="226" fill="#91a0b8" font-size="11" font-family="Inter, Arial" letter-spacing="2">AT RISK</text>
  <text x="450" y="252" fill="#eef2f8" font-size="42" font-family="Inter, Arial" font-weight="700">4</text>
  <line x1="720" y1="214" x2="720" y2="252" stroke="rgba(255,255,255,0.08)"/>
  <text x="750" y="226" fill="#91a0b8" font-size="11" font-family="Inter, Arial" letter-spacing="2">HEALTHY</text>
  <text x="750" y="252" fill="#eef2f8" font-size="42" font-family="Inter, Arial" font-weight="700">0</text>
  <line x1="1020" y1="214" x2="1020" y2="252" stroke="rgba(255,255,255,0.08)"/>
  <text x="1050" y="226" fill="#91a0b8" font-size="11" font-family="Inter, Arial" letter-spacing="2">TOTAL</text>
  <text x="1050" y="252" fill="#eef2f8" font-size="42" font-family="Inter, Arial" font-weight="700">4</text>

  <rect x="120" y="286" width="320" height="44" rx="12" fill="#171d2a" stroke="rgba(255,255,255,0.09)"/>
  <text x="144" y="314" fill="#d4dceb" font-size="14" font-family="Inter, Arial">1. Setup</text>
  <rect x="450" y="286" width="320" height="44" rx="12" fill="#edf2f8"/>
  <text x="474" y="314" fill="#121724" font-size="14" font-family="Inter, Arial" font-weight="700">2. Execute</text>
  <rect x="780" y="286" width="320" height="44" rx="12" fill="#171d2a" stroke="rgba(255,255,255,0.09)"/>
  <text x="804" y="314" fill="#d4dceb" font-size="14" font-family="Inter, Arial">3. Review</text>

  <rect x="120" y="352" width="760" height="50" rx="12" fill="#171d2a" stroke="rgba(255,255,255,0.09)"/>
  <text x="146" y="383" fill="#95a2b8" font-size="16" font-family="Inter, Arial">Search account or country</text>

  <rect x="120" y="420" width="760" height="300" rx="14" fill="url(#surface)" stroke="rgba(255,255,255,0.09)"/>
  <text x="146" y="452" fill="#b29c6b" font-size="12" font-family="Inter, Arial" font-weight="600">DUE NOW</text>
  <text x="146" y="506" fill="#eef2f8" font-size="58" font-family="Inter, Arial" font-weight="700">Multifoods</text>
  <text x="146" y="534" fill="#99a5bb" font-size="16" font-family="Inter, Arial">Peru · Tier B · Value —</text>
  <line x1="146" y1="560" x2="850" y2="560" stroke="rgba(255,255,255,0.08)"/>
  <text x="146" y="590" fill="#91a0b8" font-size="11" letter-spacing="2" font-family="Inter, Arial">RELATIONSHIP NOTES</text>
  <text x="146" y="620" fill="#c8d1e2" font-size="18" font-family="Inter, Arial">No personal hook saved yet.</text>
  <rect x="146" y="666" width="200" height="40" rx="10" fill="#edf2f8"/>
  <text x="170" y="691" fill="#121724" font-size="14" font-family="Inter, Arial" font-weight="700">Step 2 · Log interaction</text>

  <rect x="900" y="352" width="420" height="368" rx="14" fill="url(#surface)" stroke="rgba(255,255,255,0.09)"/>
  <text x="926" y="382" fill="#91a0b8" font-size="11" letter-spacing="2" font-family="Inter, Arial">RELATIONSHIP CONTEXT</text>
  <rect x="926" y="402" width="368" height="90" rx="12" fill="#1a2130" stroke="rgba(255,255,255,0.06)"/>
  <text x="952" y="438" fill="#edf2f8" font-size="22" font-family="Inter, Arial" font-weight="600">No primary contact selected</text>
  <text x="952" y="466" fill="#9ba6ba" font-size="15" font-family="Inter, Arial">Assign a contact for this account</text>
  <rect x="926" y="510" width="368" height="90" rx="12" fill="#1a2130" stroke="rgba(255,255,255,0.06)"/>
  <text x="952" y="544" fill="#edf2f8" font-size="20" font-family="Inter, Arial" font-weight="600">Recent interaction</text>
  <text x="952" y="572" fill="#9ba6ba" font-size="15" font-family="Inter, Arial">No recent interaction recorded.</text>
  <rect x="926" y="620" width="368" height="40" rx="10" fill="#edf2f8"/>
  <text x="1058" y="646" fill="#121724" font-size="14" font-family="Inter, Arial" font-weight="700">Step 2 · Log interaction</text>
</svg>
